<?xml version="1.0" standalone="no"?>
<!DOCTYPE svg PUBLIC "-//W3C//DTD SVG 20010904//EN"
 "http://www.w3.org/TR/2001/REC-SVG-20010904/DTD/svg10.dtd">
<svg version="1.0" xmlns="http://www.w3.org/2000/svg"
 width="1000.000000pt" height="1000.000000pt" viewBox="0 0 1000.000000 1000.000000"
 preserveAspectRatio="xMidYMid meet">
<metadata>
Created by potrace 1.11, written by Peter Selinger 2001-2013
</metadata>
<g transform="translate(0.000000,1000.000000) scale(0.100000,-0.100000)"
fill="#000000" stroke="none">
<path d="M4407 8572 c-445 -445 -461 -459 -515 -476 -32 -9 -66 -21 -77 -25
-11 -5 -69 -28 -130 -51 -96 -38 -323 -147 -410 -198 -61 -34 -191 -116 -225
-141 -189 -135 -293 -223 -460 -391 -80 -80 -185 -195 -233 -255 -77 -96 -222
-302 -253 -360 -6 -11 -32 -57 -58 -103 -86 -152 -228 -484 -250 -587 -5 -23
-125 -149 -481 -505 -261 -261 -475 -479 -475 -485 0 -5 215 -224 478 -488
262 -263 478 -479 480 -481 1 -1 17 -45 36 -97 18 -52 39 -107 46 -124 7 -16
14 -34 15 -40 4 -17 133 -276 171 -345 36 -63 133 -213 190 -295 155 -219 420
-491 664 -682 232 -181 581 -370 882 -477 l89 -32 488 -488 489 -488 484 484
484 484 70 23 c208 70 448 181 634 294 103 63 237 152 250 167 3 3 23 19 46
35 179 130 425 373 592 586 214 272 397 607 503 923 l34 100 468 469 c258 257
467 473 465 478 -2 5 -210 218 -463 472 l-460 462 -38 120 c-121 375 -353 779
-627 1089 -50 57 -219 227 -296 298 -62 57 -337 265 -370 280 -13 6 -24 15
-24 20 0 4 -4 8 -8 8 -5 0 -51 26 -103 57 -101 61 -368 192 -434 213 -22 7
-58 21 -80 30 -22 10 -78 29 -125 44 l-85 26 -454 455 c-250 250 -457 455
-461 455 -3 0 -211 -206 -463 -458z m880 -4 c227 -227 413 -416 413 -420 0 -4
-15 -2 -32 3 -42 13 -42 13 -178 39 l-115 23 -235 233 c-129 129 -238 234
-242 234 -4 0 -111 -104 -237 -230 l-230 -230 -88 -16 c-131 -22 -131 -22
-231 -47 l-93 -23 423 423 c232 233 425 423 427 423 3 0 190 -186 418 -412z
m-187 -138 c110 -110 200 -203 200 -206 0 -3 -10 -4 -22 -1 -83 21 -531 29
-703 13 l-80 -7 200 200 c110 111 201 201 203 201 1 0 92 -90 202 -200z m25
-234 c64 -6 149 -15 200 -22 11 -1 23 -3 27 -3 5 -1 609 -602 1344 -1337
l1335 -1336 9 -56 c19 -114 23 -191 24 -407 1 -221 -6 -344 -26 -465 -6 -36
-10 -72 -10 -81 0 -8 -585 -601 -1301 -1316 -1180 -1180 -1306 -1302 -1339
-1307 -21 -3 -62 -9 -90 -12 -29 -4 -56 -8 -59 -10 -10 -6 -276 -18 -389 -18
-150 0 -302 13 -427 34 l-52 9 -1319 1319 c-917 917 -1321 1328 -1327 1348 -4
16 -9 38 -10 49 -1 11 -5 54 -10 95 -4 41 -9 95 -11 120 -5 68 -5 389 0 440
11 109 18 167 21 190 3 17 441 461 1366 1386 748 748 1366 1361 1372 1361 7 0
32 3 57 7 25 3 86 9 135 12 50 4 91 7 92 8 6 5 325 -2 388 -8z m-2072 -1355
c-725 -725 -1319 -1317 -1321 -1315 -3 2 11 79 34 194 3 14 15 59 26 100 11
41 23 84 25 95 3 11 485 500 1071 1087 l1066 1067 80 22 c116 32 276 67 309
68 24 1 -175 -202 -1290 -1318z m2532 1284 c61 -14 128 -30 150 -36 35 -10
182 -153 1118 -1087 593 -593 1083 -1088 1088 -1102 6 -14 12 -34 15 -44 2
-10 8 -33 13 -50 13 -40 52 -228 48 -232 -2 -2 -585 580 -1297 1292 -854 854
-1286 1293 -1270 1290 14 -3 75 -17 135 -31z m299 -82 c4 -5 11 -8 14 -8 54
-4 453 -182 577 -258 386 -235 678 -488 910 -791 47 -61 89 -115 93 -121 101
-130 280 -456 347 -630 15 -38 31 -79 36 -90 14 -32 49 -138 46 -141 -1 -2
-463 458 -1027 1022 -563 563 -1020 1024 -1014 1024 6 0 14 -3 18 -7z m-2014
-6 c0 -1 -455 -457 -1010 -1012 l-1011 -1010 35 97 c129 359 352 734 611 1027
56 63 220 226 274 271 29 25 61 52 71 61 10 8 31 24 45 35 15 10 39 29 53 42
15 13 39 30 55 40 15 9 27 20 27 24 0 4 4 8 8 8 4 0 59 34 122 75 63 41 120
75 126 75 7 0 14 4 16 9 5 15 276 147 408 199 163 64 170 67 170 59z m-2113
-2181 c-7 -17 -55 -231 -61 -271 -19 -127 2 -98 -258 -358 l-240 -240 245
-246 245 -246 12 -70 c7 -38 24 -115 37 -170 14 -55 27 -111 30 -123 4 -15
-162 144 -436 418 -242 243 -441 444 -441 448 0 7 862 872 869 872 2 0 1 -6
-2 -14z m6678 -437 l419 -420 -431 -431 -432 -432 24 95 c13 52 29 123 35 159
l12 65 267 267 266 268 -260 260 -259 260 -18 87 c-10 49 -20 106 -24 128 -3
22 -12 57 -19 78 -7 20 -10 37 -6 37 3 0 195 -189 426 -421z m-119 -206 l226
-226 -229 -229 c-125 -125 -231 -228 -235 -228 -4 0 -5 6 -3 13 35 91 41 714
10 878 -2 10 -2 19 1 19 2 0 106 -102 230 -227z m-6652 130 c-2 -32 -6 -68 -9
-81 -15 -62 -4 -527 14 -644 5 -26 6 -48 4 -48 -2 0 -97 94 -212 209 l-209
208 207 207 c113 113 207 206 208 206 1 0 -1 -26 -3 -57z m1361 -2184 c968
-969 1273 -1279 1250 -1274 -16 4 -41 8 -55 10 -14 1 -54 10 -90 20 -36 9 -72
19 -80 21 -8 2 -44 11 -79 21 l-64 18 -1033 1033 -1032 1032 -20 68 c-24 81
-52 185 -58 215 -10 55 -16 83 -20 100 -3 9 -4 17 -2 17 2 0 579 -577 1283
-1281z m4945 1075 l-39 -158 -1048 -1049 c-577 -576 -1056 -1053 -1066 -1058
-21 -12 -281 -79 -306 -79 -9 0 549 565 1239 1255 690 690 1256 1253 1257
1251 2 -2 -15 -74 -37 -162z m-95 -316 c-13 -35 -33 -85 -45 -113 -11 -27 -29
-68 -38 -90 -94 -223 -317 -579 -487 -774 -115 -133 -319 -332 -389 -381 -12
-8 -28 -21 -36 -29 -47 -46 -282 -206 -415 -283 -146 -84 -416 -207 -534 -243
-13 -4 423 439 968 984 545 545 993 991 995 991 2 0 -7 -28 -19 -62z m-5030
-938 c534 -533 961 -967 950 -964 -64 20 -236 94 -340 146 -439 221 -800 517
-1100 903 -69 89 -175 240 -175 250 0 2 -13 23 -29 47 -43 65 -165 302 -204
398 -53 128 -77 190 -74 190 1 0 439 -436 972 -970z m1207 -1090 c24 -7 50
-14 58 -16 12 -2 124 -27 180 -39 8 -2 26 -4 40 -4 18 -1 92 -68 290 -266 146
-146 270 -265 275 -265 6 0 129 119 275 265 209 209 272 266 295 269 47 6 258
57 280 68 11 6 -182 -192 -428 -439 l-449 -450 -444 444 c-244 245 -444 447
-444 450 0 3 6 3 14 0 8 -3 34 -11 58 -17z m1088 -305 c-129 -129 -238 -235
-243 -235 -4 0 -111 104 -238 231 l-232 231 49 -6 c172 -21 496 -28 664 -13
135 11 205 19 209 23 2 2 9 4 15 4 6 0 -95 -106 -224 -235z"/>
</g>
</svg>
